<?xml version="1.0" encoding="utf-8"?>
<!-- Generator: Adobe Illustrator 22.0.1, SVG Export Plug-In . SVG Version: 6.00 Build 0)  -->
<svg version="1.1" id="Layer_1" xmlns="http://www.w3.org/2000/svg" xmlns:xlink="http://www.w3.org/1999/xlink" x="0px" y="0px"
	 viewBox="0 0 418 421" style="enable-background:new 0 0 418 421;" xml:space="preserve">
<style type="text/css">
	.st0{clip-path:url(#SVGID_2_);}
</style>
<g>
	<g>
		<defs>
			<rect id="SVGID_1_" x="3" y="3" width="409.9" height="410.9"/>
		</defs>
		<clipPath id="SVGID_2_">
			<use xlink:href="#SVGID_1_"  style="overflow:visible;"/>
		</clipPath>
		<path class="st0" d="M78.1,344.7h327.7c4.1,0,6.8-2.7,6.8-6.8V10.1c0-4.1-2.7-6.8-6.8-6.8H78.1c-4.1,0-6.8,2.7-6.8,6.8v327.7
			C71.3,341.9,74,344.7,78.1,344.7L78.1,344.7z M84.9,235.4h68.3c-3.4,36.2-32.1,64.9-68.3,68.3V235.4z M84.9,17h109.2v41h-6.8
			c-4.1,0-6.8,2.7-6.8,6.8c0,4.1,2.7,6.8,6.8,6.8h27.3c4.1,0,6.8-2.7,6.8-6.8c0-4.1-2.7-6.8-6.8-6.8h-6.8V17h61.4v75.1
			c0,4.1,2.7,6.8,6.8,6.8h27.3v6.8c0,4.1,2.7,6.8,6.8,6.8c4.1,0,6.8-2.7,6.8-6.8V78.4c0-4.1-2.7-6.8-6.8-6.8c-4.1,0-6.8,2.7-6.8,6.8
			v6.8h-20.5V17h116v68.3h-27.3v-6.8c0-4.1-2.7-6.8-6.8-6.8c-4.1,0-6.8,2.7-6.8,6.8v27.3c0,4.1,2.7,6.8,6.8,6.8
			c4.1,0,6.8-2.7,6.8-6.8v-6.8h27.3v109.2h-41v-6.8c0-4.1-2.7-6.8-6.8-6.8s-6.8,2.7-6.8,6.8v27.3c0,4.1,2.7,6.8,6.8,6.8
			s6.8-2.7,6.8-6.8v-6.8h41V331H248.8V221.8h41v6.8c0,4.1,2.7,6.8,6.8,6.8c4.1,0,6.8-2.7,6.8-6.8v-27.3c0-4.1-2.7-6.8-6.8-6.8
			c-4.1,0-6.8,2.7-6.8,6.8v6.8h-47.8c-4.1,0-6.8,2.7-6.8,6.8V331H84.9v-13.9c45.9-3.5,81.9-41.6,81.9-88.5c0-4.1-2.7-6.8-6.8-6.8
			H84.9v-41H201c4.1,0,6.8-2.7,6.8-6.8v-47.8h6.8c4.1,0,6.8-2.7,6.8-6.8c0-4.1-2.7-6.8-6.8-6.8h-27.3c-4.1,0-6.8,2.7-6.8,6.8
			c0,4.1,2.7,6.8,6.8,6.8h6.8v41H84.9V17z M84.9,17"/>
		<path class="st0" d="M55.6,342.6c2.7-2.7,2.7-6.8,0-9.6c-2.7-2.7-6.8-2.7-9.6,0l-8.9,8.9V26.5l8.9,8.9c1.4,1.4,2.7,2,4.8,2
			c2.1,0,3.4-0.7,4.8-2c2.7-2.7,2.7-6.8,0-9.6L36.3,6.5c-1.1-2-3.2-3.2-5.9-3.2c-2.7,0-4.8,1.2-5.9,3.2L5,25.8
			c-2.7,2.7-2.7,6.8,0,9.6c2.7,2.7,6.8,2.7,9.6,0l8.9-8.9v315.4l-8.9-8.9c-2.7-2.7-6.8-2.7-9.6,0c-2.7,2.7-2.7,6.8,0,9.6l19.3,19.3
			c1.1,2,3.2,3.2,6,3.2c2.7,0,4.8-1.2,5.9-3.2L55.6,342.6z M55.6,342.6"/>
	</g>
	<path d="M412.6,385.6L412.6,385.6c0-2.7-1.2-4.8-3.2-6l-19.3-19.3c-2.7-2.7-6.8-2.7-9.6,0c-2.7,2.7-2.7,6.8,0,9.6l8.9,8.9H74
		l8.9-8.9c2.7-2.7,2.7-6.8,0-9.6c-2.7-2.7-6.8-2.7-9.6,0L54,379.7c-2,1.1-3.2,3.2-3.2,5.9s1.2,4.8,3.2,5.9l19.3,19.3
		c1.4,1.4,2.7,2,4.8,2c2,0,3.4-0.7,4.8-2c2.7-2.7,2.7-6.8,0-9.6l-8.9-8.9h315.4l-8.9,8.9c-2.7,2.7-2.7,6.8,0,9.6
		c1.4,1.4,2.7,2.1,4.8,2.1c2,0,3.4-0.7,4.8-2.1l19.3-19.3C411.4,390.4,412.6,388.3,412.6,385.6L412.6,385.6z M412.6,385.6"/>
</g>
</svg>
