<?xml version="1.0" encoding="UTF-8"?>
<!-- Generator: Adobe Illustrator 22.1.0, SVG Export Plug-In . SVG Version: 6.00 Build 0)  -->
<svg version="1.1" id="Layer_2_1_" xmlns="http://www.w3.org/2000/svg" xmlns:xlink="http://www.w3.org/1999/xlink" x="0px" y="0px" viewBox="0 0 197.5 172" style="enable-background:new 0 0 197.5 172;" xml:space="preserve">
<style type="text/css">
	.st0{fill:#385eb8;}
</style>
<g>
	<path class="st0" d="M24.6,124.2c-0.6,0-1.3-0.1-1.9-0.4c-1.9-0.8-3.1-2.6-3.1-4.6V95.9l-7.3,0c-6,0-11-4.9-11-11V12.2   c0-6,4.9-11,11-11l129.5,0c6,0,11,4.9,11,11v34.9c0,2.8-2.2,5-5,5s-5-2.2-5-5V12.2c0-0.5-0.4-1-1-1l-129.5,0c-0.5,0-1,0.4-1,1v72.8   c0,0.5,0.4,1,1,1l12.3,0c2.8,0,5,2.2,5,5v16.3L50,86.7c0.9-0.9,2.2-1.5,3.5-1.5h4.8c2.8,0,5,2.2,5,5s-2.2,5-5,5h-2.7l-27.5,27.5   C27.2,123.7,25.9,124.2,24.6,124.2z"/>
</g>
<g>
	<path class="st0" d="M175.4,171.5c-1.3,0-2.6-0.5-3.5-1.5l-27.3-27.5l-10.5-0.1l-55.5,0c-5.3,0-9.6-4.3-9.6-9.6L69,67   c0-5.3,4.3-9.6,9.6-9.6l107.9,0c5.3,0,9.6,4.3,9.6,9.6l0,65.8c0,5.3-4.3,9.6-9.6,9.6h-6v24.1c0,2-1.2,3.9-3.1,4.6   C176.7,171.4,176.1,171.5,175.4,171.5z M79,132.4l55.1,0c0,0,0,0,0,0l12.6,0.1c1.3,0,2.6,0.5,3.5,1.5l20.2,20.4v-17   c0-2.8,2.2-5,5-5H186l0-65l-107,0L79,132.4z"/>
</g>
</svg>