<?xml version="1.0" encoding="utf-8"?>
<!-- Generator: Adobe Illustrator 22.0.1, SVG Export Plug-In . SVG Version: 6.00 Build 0)  -->
<svg version="1.1" id="Capa_1" xmlns="http://www.w3.org/2000/svg" xmlns:xlink="http://www.w3.org/1999/xlink" x="0px" y="0px"
	 viewBox="-49 141 111 133.3" style="enable-background:new -49 141 111 133.3;" xml:space="preserve">
<style type="text/css">
	.st0{fill:#231F20;}
</style>
<g>
	<path class="st0" d="M28.8,228.4c7-6.4,11.1-15.4,11.1-24.8c0-18.4-15.1-33.5-33.5-33.5s-33.5,15.1-33.5,33.5
		c0,9.6,4.2,18.9,11.3,25.2c5.3,5.3,4.8,16.6,4.7,16.8c0,0.6,0.1,1.1,0.6,1.6c0.4,0.4,1,0.6,1.4,0.6h30.7c0.6,0,1.1-0.2,1.4-0.6
		c0.4-0.4,0.6-1,0.6-1.6c0-0.1-0.6-11.5,4.7-16.8C28.6,228.7,28.7,228.5,28.8,228.4z M25.7,225.6c-0.1,0.1-0.4,0.4-0.4,0.5
		c-4.7,5.1-5.5,13.4-5.7,17.4H-7c-0.1-4-1-12.7-6-17.8c-6.4-5.5-10.1-13.6-10.1-22.2c0-16.3,13.1-29.4,29.4-29.4
		s29.4,13.1,29.4,29.4C35.7,212,32.1,220.1,25.7,225.6z"/>
	<path class="st0" d="M6.3,178.6c-1.1,0-2,1-2,2s1,2,2,2c12.2,0,21.9,9.9,21.9,21.9c0,1.1,1,2,2,2c1.1,0,2-1,2-2
		C32.4,190.3,20.8,178.6,6.3,178.6z"/>
	<path class="st0" d="M24.7,255.1c0-2.8-2.3-5.1-5.1-5.1H-7.1c-2.8,0-5.1,2.3-5.1,5.1c0,2.8,2.3,5.1,5.1,5.1h26.6
		C22.4,260,24.7,257.8,24.7,255.1z M19.7,255.9H-7.1c-0.5,0-1-0.4-1-1c0-0.6,0.4-1,1-1h26.6c0.5,0,1,0.4,1,1
		C20.5,255.5,20.1,255.9,19.7,255.9z"/>
	<path class="st0" d="M15.7,262.2H-3.1c-2.8,0-5.1,2.3-5.1,5.1c0,2.8,2.3,5.1,5.1,5.1h18.8c2.8,0,5.1-2.3,5.1-5.1
		C20.8,264.3,18.5,262.2,15.7,262.2z M15.7,268.1H-3.1c-0.5,0-1-0.4-1-1s0.4-1,1-1h18.8c0.5,0,1,0.4,1,1S16.2,268.1,15.7,268.1z"/>
	<path class="st0" d="M8.3,158v-14c0-1.1-1-2-2-2c-1.1,0-2,1-2,2v14c0,1.1,1,2,2,2C7.5,160.1,8.3,159.1,8.3,158z"/>
	<path class="st0" d="M40.4,152.4c-1-0.7-2.2-0.4-2.8,0.5l-7.7,11.6c-0.7,1-0.5,2.3,0.5,2.9c0.4,0.2,0.7,0.4,1.1,0.4
		c0.7,0,1.3-0.4,1.7-1l7.7-11.6C41.6,154.3,41.4,153,40.4,152.4z"/>
	<path class="st0" d="M-18.2,167.2c0.4,0,0.7-0.1,1.1-0.4c1-0.6,1.2-1.9,0.6-2.9l-7.5-11.7c-0.6-1-1.9-1.2-2.9-0.6
		c-1,0.6-1.2,1.9-0.6,2.9l7.5,11.7C-19.5,166.9-18.9,167.2-18.2,167.2z"/>
	<path class="st0" d="M-46.9,177l12.2,6.6c0.4,0.1,0.6,0.2,1,0.2c0.7,0,1.4-0.4,1.8-1.1c0.5-1,0.1-2.3-0.8-2.8l-12.2-6.6
		c-1-0.5-2.3-0.1-2.8,0.8C-48.3,175.1-48,176.5-46.9,177z"/>
	<path class="st0" d="M46.3,183.8c0.4,0,0.7-0.1,1-0.2l12.3-6.6c1-0.5,1.3-1.8,0.8-2.8c-0.5-1-1.8-1.3-2.8-0.8L45.3,180
		c-1,0.5-1.3,1.8-0.8,2.8C44.9,183.5,45.6,183.8,46.3,183.8z"/>
</g>
</svg>
