<?xml version="1.0" encoding="UTF-8"?>
<!-- Generator: Adobe Illustrator 22.0.1, SVG Export Plug-In . SVG Version: 6.00 Build 0)  -->
<svg version="1.1" id="Layer_1" xmlns="http://www.w3.org/2000/svg" xmlns:xlink="http://www.w3.org/1999/xlink" x="0px" y="0px" viewBox="0 0 48 48" style="enable-background:new 0 0 48 48;" xml:space="preserve">
<style type="text/css">
	.st0{fill:#FFFFFF;}
</style>
<g id="Icons">
	<g id="Black" transform="translate(-200.000000, -160.000000)">
		<path id="Facebook" class="st0" d="M225.6,207.2h-22.2c-1.4,0-2.6-1.1-2.6-2.6v-41.3c0-1.4,1.1-2.6,2.6-2.6h41.3    c1.4,0,2.6,1.1,2.6,2.6v41.3c0,1.4-1.1,2.6-2.6,2.6h-11.8v-18h6l0.9-7h-6.9v-4.5c0-2,0.6-3.4,3.5-3.4l3.7,0v-6.3    c-0.6-0.1-2.8-0.3-5.4-0.3c-5.3,0-9,3.3-9,9.3v5.2h-6v7h6V207.2L225.6,207.2z"/>
	</g>
</g>
</svg>