<?xml version="1.0" encoding="UTF-8"?>
<!-- Generator: Adobe Illustrator 22.1.0, SVG Export Plug-In . SVG Version: 6.00 Build 0)  -->
<svg version="1.1" id="Layer_2_1_" xmlns="http://www.w3.org/2000/svg" xmlns:xlink="http://www.w3.org/1999/xlink" x="0px" y="0px" viewBox="0 0 197.5 172" style="enable-background:new 0 0 197.5 172;" xml:space="preserve">
<style type="text/css">
	.st0{fill:#7DB8E4;}
</style>
<g>
	<g>
		<path class="st0" d="M169.5,34.8H28c-2.8,0-5-2.2-5-5s2.2-5,5-5h141.5c2.8,0,5,2.2,5,5S172.3,34.8,169.5,34.8z"/>
	</g>
	<g>
		<path class="st0" d="M169.5,91H28c-2.8,0-5-2.2-5-5s2.2-5,5-5h141.5c2.8,0,5,2.2,5,5S172.3,91,169.5,91z"/>
	</g>
	<g>
		<path class="st0" d="M169.5,147.2H28c-2.8,0-5-2.2-5-5s2.2-5,5-5h141.5c2.8,0,5,2.2,5,5S172.3,147.2,169.5,147.2z"/>
	</g>
</g>
</svg>