<?xml version="1.0" encoding="utf-8"?>
<!-- Generator: Adobe Illustrator 22.0.1, SVG Export Plug-In . SVG Version: 6.00 Build 0)  -->
<svg version="1.1" id="Layer_1" xmlns="http://www.w3.org/2000/svg" xmlns:xlink="http://www.w3.org/1999/xlink" x="0px" y="0px"
	 viewBox="0 0 76 69.5" style="enable-background:new 0 0 76 69.5;" xml:space="preserve">
<g>
	<path d="M67.5,1.7H8.2c-3.8,0-6.9,3.1-6.9,6.9v39.4c0,3.8,3.1,6.9,6.9,6.9h19.6c-0.2,3.8-0.9,7.5-2,11H21c-0.9,0-1.6,0.7-1.6,1.6
		c0,0.9,0.7,1.6,1.6,1.6h33.8c0.9,0,1.6-0.7,1.6-1.6c0-0.9-0.7-1.6-1.6-1.6H50c-1.2-3.5-1.9-7.2-2-11h19.6c3.8,0,6.9-3.1,6.9-6.9
		V8.6C74.4,4.8,71.3,1.7,67.5,1.7L67.5,1.7z M4.5,8.6c0-2.1,1.7-3.8,3.8-3.8h59.3c2.1,0,3.8,1.7,3.8,3.8v35.9H4.5V8.6z M29.1,65.8
		c1.1-3.5,1.7-7.2,1.9-11h13.9c0.2,3.8,0.8,7.5,1.9,11H29.1z M71.3,47.9c0,2.1-1.7,3.8-3.8,3.8H8.2c-2.1,0-3.8-1.7-3.8-3.8v-0.3
		h66.8V47.9z M71.3,47.9"/>
	<path d="M47.2,17.5l9.3,7.9l-9.3,7.9c-0.7,0.6-0.7,1.6-0.2,2.2c0.3,0.4,0.8,0.6,1.2,0.6c0.4,0,0.7-0.1,1-0.4l10.7-9.1
		c0.3-0.3,0.6-0.7,0.6-1.2c0-0.5-0.2-0.9-0.6-1.2l-10.7-9.1c-0.7-0.6-1.7-0.5-2.2,0.2C46.4,16,46.5,17,47.2,17.5L47.2,17.5z
		 M47.2,17.5"/>
	<path d="M15.9,26.6l10.7,9.1c0.3,0.3,0.7,0.4,1,0.4c0.4,0,0.9-0.2,1.2-0.6c0.6-0.7,0.5-1.7-0.2-2.2l-9.3-7.9l9.3-7.9
		c0.7-0.6,0.7-1.6,0.2-2.2c-0.6-0.7-1.6-0.7-2.2-0.2l-10.7,9.1c-0.3,0.3-0.6,0.7-0.6,1.2C15.3,25.9,15.6,26.3,15.9,26.6L15.9,26.6z
		 M15.9,26.6"/>
	<path d="M33.4,39.3c0.2,0.1,0.3,0.1,0.5,0.1c0.7,0,1.3-0.4,1.5-1.1l8-24.6c0.3-0.8-0.2-1.7-1-2c-0.8-0.3-1.7,0.2-2,1l-8,24.6
		C32.1,38.1,32.6,39,33.4,39.3L33.4,39.3z M33.4,39.3"/>
</g>
</svg>
