<?xml version="1.0" encoding="UTF-8"?>
<!-- Generator: Adobe Illustrator 22.0.1, SVG Export Plug-In . SVG Version: 6.00 Build 0)  -->
<svg version="1.1" id="Layer_1" xmlns="http://www.w3.org/2000/svg" xmlns:xlink="http://www.w3.org/1999/xlink" x="0px" y="0px" viewBox="0 0 48 48" style="enable-background:new 0 0 48 48;" xml:space="preserve">
<style type="text/css">
	.st0{fill:#FFFFFF;}
</style>
<title>Instagram-black</title>
<desc>Created with Sketch.</desc>
<g id="Icons">
	<g id="Black" transform="translate(-500.000000, -160.000000)">
		<path id="Instagram" class="st0" d="M524,160.6c-6.4,0-7.2,0-9.7,0.1c-2.5,0.1-4.2,0.5-5.7,1.1c-1.5,0.6-2.8,1.4-4.1,2.7    c-1.3,1.3-2.1,2.6-2.7,4.1c-0.6,1.5-1,3.2-1.1,5.7c-0.1,2.5-0.1,3.3-0.1,9.7c0,6.4,0,7.2,0.1,9.7c0.1,2.5,0.5,4.2,1.1,5.7    c0.6,1.5,1.4,2.8,2.7,4.1c1.3,1.3,2.6,2.1,4.1,2.7c1.5,0.6,3.2,1,5.7,1.1c2.5,0.1,3.3,0.1,9.7,0.1c6.4,0,7.2,0,9.7-0.1    c2.5-0.1,4.2-0.5,5.7-1.1c1.5-0.6,2.8-1.4,4.1-2.7c1.3-1.3,2.1-2.6,2.7-4.1c0.6-1.5,1-3.2,1.1-5.7c0.1-2.5,0.1-3.3,0.1-9.7    c0-6.4,0-7.2-0.1-9.7c-0.1-2.5-0.5-4.2-1.1-5.7c-0.6-1.5-1.4-2.8-2.7-4.1c-1.3-1.3-2.6-2.1-4.1-2.7c-1.5-0.6-3.2-1-5.7-1.1    C531.2,160.6,530.4,160.6,524,160.6z M524,164.8c6.3,0,7,0,9.5,0.1c2.3,0.1,3.5,0.5,4.3,0.8c1.1,0.4,1.9,0.9,2.7,1.8    c0.8,0.8,1.3,1.6,1.8,2.7c0.3,0.8,0.7,2.1,0.8,4.3c0.1,2.5,0.1,3.2,0.1,9.5c0,6.3,0,7-0.1,9.5c-0.1,2.3-0.5,3.5-0.8,4.3    c-0.4,1.1-0.9,1.9-1.8,2.7c-0.8,0.8-1.6,1.3-2.7,1.8c-0.8,0.3-2.1,0.7-4.3,0.8c-2.5,0.1-3.2,0.1-9.5,0.1c-6.3,0-7,0-9.5-0.1    c-2.3-0.1-3.5-0.5-4.3-0.8c-1.1-0.4-1.9-0.9-2.7-1.8c-0.8-0.8-1.3-1.6-1.8-2.7c-0.3-0.8-0.7-2.1-0.8-4.3c-0.1-2.5-0.1-3.2-0.1-9.5    c0-6.3,0-7,0.1-9.5c0.1-2.3,0.5-3.5,0.8-4.3c0.4-1.1,0.9-1.9,1.8-2.7c0.8-0.8,1.6-1.3,2.7-1.8c0.8-0.3,2.1-0.7,4.3-0.8    C517,164.8,517.7,164.8,524,164.8z M524,172c-6.6,0-12,5.4-12,12c0,6.6,5.4,12,12,12c6.6,0,12-5.4,12-12    C536,177.4,530.6,172,524,172z M524,191.8c-4.3,0-7.8-3.5-7.8-7.8c0-4.3,3.5-7.8,7.8-7.8c4.3,0,7.8,3.5,7.8,7.8    C531.8,188.3,528.3,191.8,524,191.8z M539.3,171.5c0,1.6-1.3,2.8-2.8,2.8c-1.6,0-2.8-1.3-2.8-2.8c0-1.6,1.3-2.8,2.8-2.8    C538.1,168.7,539.3,169.9,539.3,171.5z"/>
	</g>
</g>
</svg>