<?xml version="1.0" encoding="UTF-8"?>
<!-- Generator: Adobe Illustrator 22.0.1, SVG Export Plug-In . SVG Version: 6.00 Build 0)  -->
<svg version="1.1" id="Layer_1" xmlns="http://www.w3.org/2000/svg" xmlns:xlink="http://www.w3.org/1999/xlink" x="0px" y="0px" viewBox="0 0 44 40" style="enable-background:new 0 0 44 40;" xml:space="preserve">
<style type="text/css">
	.st0{fill:#FFFFFF;}
</style>
<title>LinkedIn-black</title>
<desc>Created with Sketch.</desc>
<g id="Icons">
	<g id="Black" transform="translate(-702.000000, -265.000000)">
		<path id="LinkedIn" class="st0" d="M744.9,304h-9.3v-13.4c0-3.5-1.4-5.9-4.6-5.9c-2.4,0-3.8,1.6-4.4,3.2c-0.2,0.6-0.2,1.3-0.2,2.1    v14h-9.2c0,0,0.1-23.7,0-25.9h9.2v4.1c0.5-1.8,3.5-4.3,8.1-4.3c5.8,0,10.4,3.7,10.4,11.7V304L744.9,304z M708,274.9L708,274.9    c-3,0-4.9-2-4.9-4.5c0-2.6,2-4.5,5-4.5c3,0,4.9,1.9,4.9,4.5C713,273,711.1,274.9,708,274.9L708,274.9L708,274.9z M704.1,278.2h8.2    V304h-8.2V278.2L704.1,278.2z"/>
	</g>
</g>
</svg>