<?xml version="1.0" encoding="utf-8"?>
<!-- Generator: Adobe Illustrator 22.0.1, SVG Export Plug-In . SVG Version: 6.00 Build 0)  -->
<svg version="1.1" id="Layer_1" xmlns="http://www.w3.org/2000/svg" xmlns:xlink="http://www.w3.org/1999/xlink" x="0px" y="0px"
	 viewBox="0 0 468 93" style="enable-background:new 0 0 468 93;" xml:space="preserve">
<style type="text/css">
	.st0{fill:#231F20;}
</style>
<path class="st0" d="M180.7,21.1h10.2l7.5,14l7.5-14h10.2v21.8h-6.5V27.3h-0.1L201,42.9h-5l-8.7-15.6h-0.1v15.6h-6.5V21.1z"/>
<path class="st0" d="M220.3,28.8c0-2.2,0.5-4.7,2.3-6.1c1.8-1.5,4.3-1.7,6.6-1.7c2.1-0.1,4.1,0,6.2,0c2.1,0,4.2-0.1,6.3,0
	c2.3,0.1,4.8,0.4,6.5,2c1.6,1.5,1.9,3.7,2,5.8c0,2.1,0,4.2,0,6.3c0,1.7-0.2,3.5-1.1,5c-1.3,2.1-3.7,2.8-6,3
	c-2.3,0.2-4.6,0.1-6.8,0.1c-2.1,0-4.2,0-6.3,0c-2.3,0-5-0.1-7-1.5c-2.1-1.5-2.6-4-2.7-6.4C220.3,33.1,220.3,30.9,220.3,28.8z
	 M227.1,33.2c0,1.2,0,2.7,0.9,3.6c0.8,0.7,2,0.8,3,0.8c1,0,2.1,0,3.1,0c1.4,0,2.9,0,4.3,0c1.4,0,3.1,0.2,4.1-1
	c1.1-1.3,0.7-3.7,0.7-5.3c0-2.2-0.4-4.3-2.8-4.7c-1.2-0.2-2.4-0.1-3.6-0.1c-1.5,0-3,0-4.4,0c-1.6,0-3.7-0.2-4.7,1.4
	C226.8,29.3,227.1,31.5,227.1,33.2z"/>
<path class="st0" d="M254.2,21.1h19.2c1.3,0,2.5,0.1,3.5,0.3c1,0.2,1.8,0.5,2.5,1c0.7,0.5,1.2,1,1.5,1.8c0.3,0.7,0.5,1.6,0.5,2.7
	c0,0.9-0.1,1.7-0.2,2.3c-0.2,0.6-0.4,1.1-0.7,1.4c-0.3,0.4-0.6,0.6-1,0.8c-0.4,0.2-0.8,0.3-1.3,0.5v0.1c1.5,0.2,2.5,0.7,3.1,1.5
	c0.6,0.8,0.9,2.1,0.9,3.7c0,1.2-0.2,2.2-0.5,2.9c-0.3,0.8-0.8,1.3-1.4,1.8c-0.6,0.4-1.3,0.7-2.1,0.9c-0.8,0.1-1.7,0.2-2.7,0.2h-21.2
	V21.1z M260.9,29.8h11.8c0.6,0,1.1-0.1,1.4-0.4c0.3-0.3,0.5-0.7,0.5-1.3c0-0.6-0.2-1.1-0.5-1.3c-0.3-0.3-0.8-0.4-1.4-0.4h-11.8V29.8
	z M260.9,37.7h12c0.7,0,1.3-0.1,1.7-0.3c0.4-0.2,0.7-0.6,0.7-1.3c0-0.7-0.2-1.2-0.7-1.5c-0.4-0.2-1-0.3-1.7-0.3h-12V37.7z"/>
<path class="st0" d="M285.6,21.1h6.7v21.8h-6.7V21.1z"/>
<path class="st0" d="M296.3,21.1h6.7v16.2h15v5.6h-21.7V21.1z"/>
<path class="st0" d="M321.5,21.1h6.7v21.8h-6.7V21.1z"/>
<path class="st0" d="M331.8,21.1h25.4v5.4h-9.4v16.4h-6.7V26.5h-9.4V21.1z"/>
<path class="st0" d="M371.3,35.3l-12-14.2h8.1l7.3,8.9l7.3-8.9h8.1l-12,14.2v7.6h-6.7V35.3z"/>
<g>
	<path class="st0" d="M216.9,69.5c0.2-1.2,0.4-2.5,0.4-4V58c0-1.8-0.2-3.4-0.5-4.7c-0.4-1.4-1-2.6-1.8-3.5c-0.8-1-2-1.7-3.3-2.1
		c-1.3-0.4-3-0.7-4.9-0.7H191c-1.9,0-3.6,0.2-4.9,0.7c-1.4,0.5-2.5,1.2-3.3,2.1c-0.8,0.9-1.4,2.1-1.8,3.5c-0.3,1.3-0.5,2.9-0.5,4.7
		v7.5c0,1.8,0.2,3.4,0.5,4.7c0.3,1.4,0.9,2.6,1.8,3.5c0.8,1,2,1.7,3.3,2.1c1.3,0.4,3,0.7,4.9,0.7h15.7c2.1,0,3.9-0.3,5.2-0.8
		c1.2-0.4,2.1-1.1,2.9-1.9l2.5,1.6l2.5-3.9L216.9,69.5z M199.6,64l10.8,6.9c-0.3,0.3-0.7,0.5-1,0.6c-0.7,0.2-1.7,0.4-3,0.4h-15
		c-0.8,0-1.6-0.1-2.3-0.2c-0.7-0.1-1.2-0.4-1.7-0.7c-0.5-0.3-0.8-0.8-1.1-1.5c-0.3-0.7-0.4-1.5-0.4-2.6V56.6c0-1.1,0.1-1.9,0.4-2.6
		c0.3-0.6,0.7-1.1,1.1-1.5c0.5-0.4,1.1-0.6,1.7-0.8c0.7-0.2,1.5-0.2,2.3-0.2h15c0.8,0,1.6,0.1,2.3,0.2c0.7,0.1,1.2,0.4,1.7,0.8
		c0.5,0.3,0.8,0.8,1.1,1.5c0.3,0.6,0.4,1.5,0.4,2.6v9.8l-9.9-6.3L199.6,64z"/>
	<path class="st0" d="M250,47.3v21.2c0,0.6-0.1,1.1-0.2,1.6c-0.1,0.4-0.3,0.7-0.6,0.9c-0.3,0.3-0.8,0.5-1.5,0.7
		c-0.7,0.2-1.7,0.3-2.8,0.3h-12.8c-1.2,0-2.1-0.1-2.8-0.3c-0.6-0.2-1.1-0.4-1.5-0.7c-0.3-0.2-0.5-0.6-0.6-0.9
		c-0.1-0.5-0.2-1-0.2-1.6V47.3h-5.3v21.2c0,1.5,0.2,2.7,0.6,3.7c0.4,1.1,1.1,1.9,2,2.6c0.9,0.6,2,1.1,3.3,1.3
		c1.3,0.2,2.8,0.4,4.6,0.4h12.6c1.8,0,3.3-0.1,4.6-0.4c1.3-0.2,2.5-0.7,3.3-1.3c0.9-0.6,1.6-1.5,2-2.6c0.4-1,0.6-2.3,0.6-3.7V47.3
		H250z"/>
	<path class="st0" d="M295.9,53.3c-0.4-1.4-1-2.6-1.8-3.5c-0.8-1-2-1.7-3.3-2.1c-1.3-0.4-3-0.7-4.9-0.7h-15.7
		c-1.9,0-3.6,0.2-4.9,0.7c-1.4,0.5-2.5,1.2-3.3,2.1c-0.8,0.9-1.4,2.1-1.8,3.5c-0.3,1.3-0.5,2.9-0.5,4.7v7.5c0,1.8,0.2,3.4,0.5,4.7
		c0.3,1.4,0.9,2.6,1.8,3.5c0.8,1,2,1.7,3.3,2.1c1.3,0.4,3,0.7,4.9,0.7h15.7c1.9,0,3.5-0.2,4.9-0.7c1.4-0.5,2.5-1.2,3.3-2.1
		c0.8-0.9,1.4-2.1,1.8-3.5c0.3-1.3,0.5-2.9,0.5-4.7V58C296.4,56.2,296.2,54.6,295.9,53.3z M264.9,56.6c0-1.1,0.1-1.9,0.4-2.6
		c0.3-0.6,0.7-1.1,1.1-1.5c0.5-0.4,1.1-0.6,1.7-0.8c0.7-0.2,1.5-0.2,2.3-0.2h15c0.8,0,1.6,0.1,2.3,0.2c0.7,0.1,1.2,0.4,1.7,0.8
		c0.5,0.3,0.8,0.8,1.1,1.5c0.3,0.6,0.4,1.5,0.4,2.6v10.2c0,1.1-0.1,1.9-0.4,2.6c-0.3,0.6-0.7,1.1-1.1,1.5c-0.5,0.4-1.1,0.6-1.7,0.7
		c-0.7,0.2-1.5,0.2-2.3,0.2h-15c-0.8,0-1.6-0.1-2.3-0.2c-0.7-0.1-1.2-0.4-1.7-0.8c-0.5-0.3-0.8-0.8-1.1-1.5
		c-0.3-0.7-0.4-1.5-0.4-2.6V56.6z"/>
	<polygon class="st0" points="298.9,47.3 298.9,51.9 312.7,51.9 312.7,76.2 317.9,76.2 317.9,51.9 331.7,51.9 331.7,47.3 	"/>
	<g>
		<g>
			<path class="st0" d="M341,76.2h-5.3V47.3h5.3V76.2L341,76.2z"/>
		</g>
	</g>
	<g>
		<g>
			<path class="st0" d="M373.5,76.2H345V47.3h28.3v4.6h-23.1V59h22.2v4.6h-22.2v8h23.2V76.2L373.5,76.2z"/>
		</g>
	</g>
	<g>
		<g>
			<path class="st0" d="M413.4,76.2h-6.6L383,53.2v22.9h-5.3V47.3h6.6l23.9,22.9V47.3h5.3V76.2L413.4,76.2z"/>
		</g>
	</g>
	<polygon class="st0" points="417.1,47.3 417.1,51.9 430.9,51.9 430.9,76.2 436.1,76.2 436.1,51.9 449.9,51.9 449.9,47.3 	"/>
</g>
<polygon class="st0" points="99.4,10.4 124.5,10.4 97.9,84 72.8,84 "/>
<polygon class="st0" points="68.4,10.4 93.5,10.4 66.9,84 41.8,84 "/>
<polygon class="st0" points="37.5,10.4 62.5,10.4 35.9,84 10.9,84 "/>
<path class="st0" d="M147.9,84h21.1l-14.4-14.6c3.9-6.2,6.2-13.6,6-21.4c-0.3-12.9-6.9-24.1-16.9-30.8c0,0-0.1,0-0.1-0.1
	c-0.4-0.2-0.8-0.5-1.1-0.7c-3.7-2.3-7.9-4-12.4-5l-5.7,15.9c10.9,1.1,19.5,10.3,19.5,21.5c0,11.9-9.7,21.6-21.6,21.6
	c-4.5,0-8.6-1.4-12.1-3.7l-5.7,15.9c0.5,0.3,1,0.5,1.5,0.8c0.2,0.1,0.5,0.2,0.7,0.3c0.4,0.2,0.7,0.3,1.1,0.5
	c0.4,0.2,0.8,0.3,1.2,0.5c0.1,0,0.3,0.1,0.4,0.2c4.3,1.6,8.9,2.4,13.8,2.3c7.8-0.2,15-2.7,21-6.9L147.9,84z"/>
<g>
	<path class="st0" d="M452,47.3h3.7v0.8h-1.4v3.8h-0.9v-3.8H452V47.3z"/>
	<path class="st0" d="M456.4,47.3h1l1.5,3l1.5-3h1v4.6h-0.8v-3.3l-1.4,2.8h-0.6l-1.4-2.8v3.3h-0.8V47.3z"/>
</g>
</svg>
