<?xml version="1.0" encoding="UTF-8"?>
<!-- Generator: Adobe Illustrator 22.0.1, SVG Export Plug-In . SVG Version: 6.00 Build 0)  -->
<svg version="1.1" id="Layer_1" xmlns="http://www.w3.org/2000/svg" xmlns:xlink="http://www.w3.org/1999/xlink" x="0px" y="0px" viewBox="0 0 72.7 35.4" style="enable-background:new 0 0 72.7 35.4;" xml:space="preserve">
	 <style type="text/css">
		.mq-mobile-logo-svg-part{
			fill: #3e3b3c;
		}
	 </style>
<g>
	<polygon class="mq-mobile-logo-svg-part" points="40.5,0 51.9,0 39.8,33.3 28.5,33.3 40.5,0  "/>
	<polygon class="mq-mobile-logo-svg-part" points="26.5,0 37.9,0 25.8,33.3 14.5,33.3 26.5,0  "/>
	<polygon class="mq-mobile-logo-svg-part" points="12.5,0 23.9,0 11.8,33.3 0.5,33.3 12.5,0  "/>
	<path class="mq-mobile-logo-svg-part" d="M62.4,33.3H72l-6.5-6.6c1.8-2.8,2.8-6.1,2.7-9.7C68,11.2,65,6.1,60.5,3.1l0,0c-0.2-0.1-0.3-0.2-0.5-0.3   c-1.7-1.1-3.6-1.8-5.6-2.2l-2.6,7.2c4.9,0.5,8.8,4.6,8.8,9.7c0,5.4-4.4,9.8-9.8,9.8c-2,0-3.9-0.6-5.5-1.7l-2.6,7.2   c0.2,0.1,0.5,0.2,0.7,0.4c0.1,0.1,0.2,0.1,0.3,0.1c0.2,0.1,0.3,0.1,0.5,0.2c0.2,0.1,0.4,0.1,0.5,0.2l0.2,0.1c1.9,0.7,4,1.1,6.2,1   c3.5-0.1,6.8-1.2,9.5-3.1L62.4,33.3L62.4,33.3z"/>
</g>
</svg>