<?xml version="1.0" encoding="utf-8"?>
<!-- Generator: Adobe Illustrator 22.0.1, SVG Export Plug-In . SVG Version: 6.00 Build 0)  -->
<svg version="1.1" id="Layer_2" xmlns="http://www.w3.org/2000/svg" xmlns:xlink="http://www.w3.org/1999/xlink" x="0px" y="0px"
	 viewBox="0 0 76.5 72.5" style="enable-background:new 0 0 76.5 72.5;" xml:space="preserve">
<style type="text/css">
	.st0{fill:#231F20;}
</style>
<g>
	<path class="st0" d="M26.6,15.6c-3.4,0-6.2-2.8-6.2-6.2s2.8-6.2,6.2-6.2s6.2,2.8,6.2,6.2S30.1,15.6,26.6,15.6z M26.6,6.1
		c-1.8,0-3.2,1.5-3.2,3.2s1.5,3.2,3.2,3.2s3.2-1.5,3.2-3.2S28.4,6.1,26.6,6.1z"/>
</g>
<g>
	<path class="st0" d="M9.2,38.1c-3.4,0-6.2-2.8-6.2-6.2s2.8-6.2,6.2-6.2s6.2,2.8,6.2,6.2S12.7,38.1,9.2,38.1z M9.2,28.6
		c-1.8,0-3.2,1.5-3.2,3.2s1.5,3.2,3.2,3.2s3.2-1.5,3.2-3.2S11,28.6,9.2,28.6z"/>
</g>
<g>
	<path class="st0" d="M34.8,64.2c-3.4,0-6.2-2.8-6.2-6.2s2.8-6.2,6.2-6.2s6.2,2.8,6.2,6.2S38.3,64.2,34.8,64.2z M34.8,54.7
		c-1.8,0-3.2,1.5-3.2,3.2s1.5,3.2,3.2,3.2s3.2-1.5,3.2-3.2S36.6,54.7,34.8,54.7z"/>
</g>
<g>
	<path class="st0" d="M64.8,64.7c-2.6,0-5-0.9-6.9-2.7c-2-1.8-3.1-4.3-3.2-7c-0.1-2.7,0.8-5.3,2.7-7.3s4.3-3.1,7-3.2
		c5.5-0.2,10.3,4.1,10.5,9.7v0c0.1,2.7-0.8,5.3-2.7,7.3s-4.3,3.1-7,3.2C65.1,64.7,65,64.7,64.8,64.7z M64.8,47.5c-0.1,0-0.2,0-0.3,0
		c-1.9,0.1-3.7,0.9-4.9,2.3c-1.3,1.4-2,3.2-1.9,5.1c0.1,1.9,0.9,3.7,2.3,4.9c1.4,1.3,3.2,2,5.1,1.9c1.9-0.1,3.7-0.9,4.9-2.3
		c1.3-1.4,2-3.2,1.9-5.1v0C71.8,50.5,68.6,47.5,64.8,47.5z"/>
</g>
<g>
	<path class="st0" d="M36.1,45.1c-6.3,0-11.4-5.1-11.4-11.4s5.1-11.4,11.4-11.4s11.4,5.1,11.4,11.4S42.4,45.1,36.1,45.1z M36.1,25.3
		c-4.6,0-8.4,3.8-8.4,8.4s3.8,8.4,8.4,8.4s8.4-3.8,8.4-8.4S40.8,25.3,36.1,25.3z"/>
</g>
<g>
	<path class="st0" d="M36.9,70.7c-10.5,0-20.4-4.1-27.8-11.6l2.1-2.1c6.8,6.9,15.9,10.7,25.6,10.7c8.1,0,15.7-2.6,22.1-7.6l1.8,2.4
		C53.9,67.8,45.7,70.7,36.9,70.7z"/>
</g>
<g>
	<path class="st0" d="M29.9,58.3c-7.1-2.5-13-7.2-17.1-13.6c-1.2-1.9-2.3-4-3.1-6.1c-0.2-0.5-0.4-1-0.5-1.5l2.8-0.9
		c0.2,0.5,0.3,0.9,0.5,1.4c0.7,1.9,1.7,3.8,2.8,5.6c3.7,5.8,9.1,10.1,15.6,12.4L29.9,58.3z"/>
</g>
</svg>
