<?xml version="1.0" encoding="UTF-8"?>
<!-- Generator: Adobe Illustrator 22.0.1, SVG Export Plug-In . SVG Version: 6.00 Build 0)  -->
<svg version="1.1" id="Layer_1" xmlns="http://www.w3.org/2000/svg" xmlns:xlink="http://www.w3.org/1999/xlink" x="0px" y="0px" viewBox="0 0 48 40" style="enable-background:new 0 0 48 40;" xml:space="preserve">
<style type="text/css">
	.st0{fill:#FFFFFF;}
</style>
<title>Twitter-black</title>
<desc>Created with Sketch.</desc>
<g id="Icons">
	<g id="Black" transform="translate(-300.000000, -164.000000)">
		<path id="Twitter" class="st0" d="M345.7,170.2c-1.6,0.7-3.3,1.2-5.1,1.4c1.8-1.1,3.2-2.9,3.9-5c-1.7,1-3.6,1.8-5.7,2.2    c-1.6-1.8-3.9-2.9-6.5-2.9c-4.9,0-8.9,4.1-8.9,9.1c0,0.7,0.1,1.4,0.2,2.1c-7.4-0.4-14-4-18.3-9.5c-0.8,1.4-1.2,2.9-1.2,4.6    c0,3.2,1.6,6,4,7.6c-1.5,0-2.8-0.5-4-1.1v0.1c0,4.4,3.1,8.1,7.1,8.9c-0.7,0.2-1.5,0.3-2.3,0.3c-0.6,0-1.1-0.1-1.7-0.2    c1.1,3.6,4.4,6.3,8.3,6.3c-3,2.4-6.9,3.9-11.1,3.9c-0.7,0-1.4,0-2.1-0.1c3.9,2.6,8.6,4.1,13.6,4.1c16.4,0,25.3-13.9,25.3-26    c0-0.4,0-0.8,0-1.2C343,173.6,344.5,172,345.7,170.2"/>
	</g>
</g>
</svg>