<?xml version="1.0" encoding="utf-8"?>
<!-- Generator: Adobe Illustrator 22.0.1, SVG Export Plug-In . SVG Version: 6.00 Build 0)  -->
<svg version="1.1" id="Layer_1" xmlns="http://www.w3.org/2000/svg" xmlns:xlink="http://www.w3.org/1999/xlink" x="0px" y="0px"
	 viewBox="0 0 103 88" style="enable-background:new 0 0 106 88;" xml:space="preserve">
<style type="text/css">
	.st0{opacity:0.2;fill:#BCBCBC;}
</style>
<path class="st0" d="M2,85.2V62.4c0-11.9,1.4-21.7,4.3-29.3c2.9-7.6,7.8-14.1,14.7-19.4C28,8.3,35.8,4.8,44.5,3v18.2
	c-6.2,3.6-9.7,8.3-10.5,14.3h10.5v49.7H2z M58.8,85.2V62.4c0-11.9,1.4-21.7,4.3-29.3C66,25.5,70.9,19,77.8,13.7
	C84.7,8.3,92.5,4.8,101.3,3v18.2c-6.2,3.6-9.7,8.3-10.5,14.3h10.5v49.7H58.8z"/>
</svg>
