<?xml version="1.0" encoding="UTF-8"?>
<!-- Generator: Adobe Illustrator 22.0.1, SVG Export Plug-In . SVG Version: 6.00 Build 0)  -->
<svg version="1.1" id="Layer_1" xmlns="http://www.w3.org/2000/svg" xmlns:xlink="http://www.w3.org/1999/xlink" x="0px" y="0px" viewBox="0 0 103 88" style="enable-background:new 0 0 106 88;" xml:space="preserve">
<style type="text/css">
	.st0{opacity:0.2;fill:#BCBCBC;}
</style>
<path class="st0" d="M101.3,3v22.7c0,11.9-1.4,21.7-4.3,29.3c-2.9,7.6-7.8,14.1-14.7,19.4c-7,5.3-14.8,8.9-23.4,10.7l0-18.2  c6.2-3.6,9.7-8.3,10.5-14.3l-10.5,0l0-49.7L101.3,3z M44.5,3l0,22.7c0,11.9-1.4,21.7-4.3,29.3c-2.9,7.6-7.8,14.1-14.7,19.4  C18.6,79.8,10.8,83.4,2,85.2L2,67c6.2-3.6,9.7-8.3,10.5-14.3L2,52.7L2,3L44.5,3z"/>
</svg>